<mxfile host="app.diagrams.net" agent="Mozilla/5.0 (Windows NT 10.0; Win64; x64) AppleWebKit/537.36 (KHTML, like Gecko) Chrome/134.0.0.0 Safari/537.36 OPR/119.0.0.0 (Edition std-2)" version="27.2.0">
  <diagram name="PÃ¡gina-1" id="6a5DYLOzgH-8xALXWZHd">
    <mxGraphModel dx="1178" dy="635" grid="1" gridSize="10" guides="1" tooltips="1" connect="1" arrows="1" fold="1" page="1" pageScale="1" pageWidth="2339" pageHeight="3300" math="0" shadow="0">
      <root>
        <mxCell id="0" />
        <mxCell id="1" parent="0" />
        <mxCell id="EieKeSjeqdE_A_YmpYcG-1" value="GAME" style="rounded=0;whiteSpace=wrap;html=1;" vertex="1" parent="1">
          <mxGeometry x="730" y="780" width="120" height="60" as="geometry" />
        </mxCell>
        <mxCell id="EieKeSjeqdE_A_YmpYcG-2" value="HAS" style="rhombus;whiteSpace=wrap;html=1;" vertex="1" parent="1">
          <mxGeometry x="940" y="770" width="80" height="80" as="geometry" />
        </mxCell>
        <mxCell id="EieKeSjeqdE_A_YmpYcG-3" value="PUBLISHER" style="rounded=0;whiteSpace=wrap;html=1;" vertex="1" parent="1">
          <mxGeometry x="920" y="920" width="120" height="60" as="geometry" />
        </mxCell>
        <mxCell id="EieKeSjeqdE_A_YmpYcG-4" value="DEVELOPERS" style="rounded=0;whiteSpace=wrap;html=1;" vertex="1" parent="1">
          <mxGeometry x="1120" y="780" width="120" height="60" as="geometry" />
        </mxCell>
        <mxCell id="EieKeSjeqdE_A_YmpYcG-6" value="" style="endArrow=none;html=1;rounded=0;entryX=0;entryY=0.5;entryDx=0;entryDy=0;exitX=1;exitY=0.5;exitDx=0;exitDy=0;" edge="1" parent="1" source="EieKeSjeqdE_A_YmpYcG-1" target="EieKeSjeqdE_A_YmpYcG-2">
          <mxGeometry width="50" height="50" relative="1" as="geometry">
            <mxPoint x="870" y="810" as="sourcePoint" />
            <mxPoint x="920" y="760" as="targetPoint" />
          </mxGeometry>
        </mxCell>
        <mxCell id="EieKeSjeqdE_A_YmpYcG-7" value="" style="endArrow=none;html=1;rounded=0;entryX=0;entryY=0.5;entryDx=0;entryDy=0;exitX=1;exitY=0.5;exitDx=0;exitDy=0;" edge="1" parent="1" source="EieKeSjeqdE_A_YmpYcG-2" target="EieKeSjeqdE_A_YmpYcG-4">
          <mxGeometry width="50" height="50" relative="1" as="geometry">
            <mxPoint x="1030" y="809.5" as="sourcePoint" />
            <mxPoint x="1100" y="809.5" as="targetPoint" />
          </mxGeometry>
        </mxCell>
        <mxCell id="EieKeSjeqdE_A_YmpYcG-8" value="" style="endArrow=none;html=1;rounded=0;exitX=0.5;exitY=0;exitDx=0;exitDy=0;" edge="1" parent="1" source="EieKeSjeqdE_A_YmpYcG-3">
          <mxGeometry width="50" height="50" relative="1" as="geometry">
            <mxPoint x="930" y="900" as="sourcePoint" />
            <mxPoint x="980" y="850" as="targetPoint" />
          </mxGeometry>
        </mxCell>
        <mxCell id="EieKeSjeqdE_A_YmpYcG-9" value="GAME_NAME" style="ellipse;whiteSpace=wrap;html=1;fillColor=#d5e8d4;strokeColor=#82b366;" vertex="1" parent="1">
          <mxGeometry x="530" y="720" width="130" height="30" as="geometry" />
        </mxCell>
        <mxCell id="EieKeSjeqdE_A_YmpYcG-10" value="LAUNCH DATE" style="ellipse;whiteSpace=wrap;html=1;" vertex="1" parent="1">
          <mxGeometry x="530" y="780" width="130" height="30" as="geometry" />
        </mxCell>
        <mxCell id="EieKeSjeqdE_A_YmpYcG-12" value="DIRECTOR" style="ellipse;whiteSpace=wrap;html=1;" vertex="1" parent="1">
          <mxGeometry x="530" y="840" width="130" height="30" as="geometry" />
        </mxCell>
        <mxCell id="EieKeSjeqdE_A_YmpYcG-15" value="GENRES" style="ellipse;whiteSpace=wrap;html=1;" vertex="1" parent="1">
          <mxGeometry x="530" y="900" width="130" height="50" as="geometry" />
        </mxCell>
        <mxCell id="EieKeSjeqdE_A_YmpYcG-16" value="ART/VISUALS RATING" style="rounded=0;whiteSpace=wrap;html=1;" vertex="1" parent="1">
          <mxGeometry x="700" y="550" width="100" height="50" as="geometry" />
        </mxCell>
        <mxCell id="EieKeSjeqdE_A_YmpYcG-17" value="GAMEPLAY RATING" style="rounded=0;whiteSpace=wrap;html=1;" vertex="1" parent="1">
          <mxGeometry x="840" y="550" width="100" height="50" as="geometry" />
        </mxCell>
        <mxCell id="EieKeSjeqdE_A_YmpYcG-18" value="OST RATING" style="rounded=0;whiteSpace=wrap;html=1;" vertex="1" parent="1">
          <mxGeometry x="990" y="550" width="100" height="50" as="geometry" />
        </mxCell>
        <mxCell id="EieKeSjeqdE_A_YmpYcG-19" value="CREATIVITY RATING" style="rounded=0;whiteSpace=wrap;html=1;" vertex="1" parent="1">
          <mxGeometry x="1140" y="550" width="100" height="50" as="geometry" />
        </mxCell>
        <mxCell id="EieKeSjeqdE_A_YmpYcG-20" value="GENRES" style="ellipse;whiteSpace=wrap;html=1;" vertex="1" parent="1">
          <mxGeometry x="540" y="910" width="110" height="30" as="geometry" />
        </mxCell>
        <mxCell id="EieKeSjeqdE_A_YmpYcG-28" value="" style="endArrow=none;html=1;rounded=0;entryX=0.5;entryY=1;entryDx=0;entryDy=0;" edge="1" parent="1" target="EieKeSjeqdE_A_YmpYcG-32">
          <mxGeometry width="50" height="50" relative="1" as="geometry">
            <mxPoint x="890" y="550" as="sourcePoint" />
            <mxPoint x="865" y="470" as="targetPoint" />
          </mxGeometry>
        </mxCell>
        <mxCell id="EieKeSjeqdE_A_YmpYcG-29" value="" style="endArrow=none;html=1;rounded=0;exitX=1;exitY=0.5;exitDx=0;exitDy=0;" edge="1" parent="1" source="EieKeSjeqdE_A_YmpYcG-33">
          <mxGeometry width="50" height="50" relative="1" as="geometry">
            <mxPoint x="590" y="555" as="sourcePoint" />
            <mxPoint x="700" y="570" as="targetPoint" />
          </mxGeometry>
        </mxCell>
        <mxCell id="EieKeSjeqdE_A_YmpYcG-30" value="RATING" style="ellipse;whiteSpace=wrap;html=1;" vertex="1" parent="1">
          <mxGeometry x="530" y="520" width="60" height="30" as="geometry" />
        </mxCell>
        <mxCell id="EieKeSjeqdE_A_YmpYcG-32" value="FK_GAME_NAME" style="ellipse;whiteSpace=wrap;html=1;" vertex="1" parent="1">
          <mxGeometry x="700" y="440" width="110" height="30" as="geometry" />
        </mxCell>
        <mxCell id="EieKeSjeqdE_A_YmpYcG-33" value="FK_GAME_NAME" style="ellipse;whiteSpace=wrap;html=1;fillColor=#FFFFFF;" vertex="1" parent="1">
          <mxGeometry x="490" y="600" width="110" height="30" as="geometry" />
        </mxCell>
        <mxCell id="EieKeSjeqdE_A_YmpYcG-34" value="" style="endArrow=none;html=1;rounded=0;exitX=1;exitY=0.5;exitDx=0;exitDy=0;" edge="1" parent="1" source="EieKeSjeqdE_A_YmpYcG-30">
          <mxGeometry width="50" height="50" relative="1" as="geometry">
            <mxPoint x="600" y="615" as="sourcePoint" />
            <mxPoint x="700" y="570" as="targetPoint" />
          </mxGeometry>
        </mxCell>
        <mxCell id="EieKeSjeqdE_A_YmpYcG-36" value="" style="endArrow=none;html=1;rounded=0;entryX=0.5;entryY=1;entryDx=0;entryDy=0;" edge="1" parent="1" target="EieKeSjeqdE_A_YmpYcG-42">
          <mxGeometry width="50" height="50" relative="1" as="geometry">
            <mxPoint x="890" y="550" as="sourcePoint" />
            <mxPoint x="895" y="470" as="targetPoint" />
          </mxGeometry>
        </mxCell>
        <mxCell id="EieKeSjeqdE_A_YmpYcG-38" value="" style="endArrow=none;html=1;rounded=0;exitX=1;exitY=0.5;exitDx=0;exitDy=0;" edge="1" parent="1">
          <mxGeometry width="50" height="50" relative="1" as="geometry">
            <mxPoint x="590" y="475" as="sourcePoint" />
            <mxPoint x="700" y="570" as="targetPoint" />
          </mxGeometry>
        </mxCell>
        <mxCell id="EieKeSjeqdE_A_YmpYcG-39" value="" style="endArrow=none;html=1;rounded=0;entryX=0.5;entryY=1;entryDx=0;entryDy=0;" edge="1" parent="1" target="EieKeSjeqdE_A_YmpYcG-43">
          <mxGeometry width="50" height="50" relative="1" as="geometry">
            <mxPoint x="894.41" y="550" as="sourcePoint" />
            <mxPoint x="980" y="470" as="targetPoint" />
          </mxGeometry>
        </mxCell>
        <mxCell id="EieKeSjeqdE_A_YmpYcG-40" value="id_ART" style="ellipse;whiteSpace=wrap;html=1;fillColor=#d5e8d4;strokeColor=#82b366;" vertex="1" parent="1">
          <mxGeometry x="530" y="460" width="60" height="30" as="geometry" />
        </mxCell>
        <mxCell id="EieKeSjeqdE_A_YmpYcG-42" value="RATING" style="ellipse;whiteSpace=wrap;html=1;" vertex="1" parent="1">
          <mxGeometry x="830" y="440" width="60" height="30" as="geometry" />
        </mxCell>
        <mxCell id="EieKeSjeqdE_A_YmpYcG-43" value="id_ART" style="ellipse;whiteSpace=wrap;html=1;fillColor=#d5e8d4;strokeColor=#82b366;" vertex="1" parent="1">
          <mxGeometry x="900" y="440" width="60" height="30" as="geometry" />
        </mxCell>
        <mxCell id="EieKeSjeqdE_A_YmpYcG-45" value="FK_GAME_NAME" style="ellipse;whiteSpace=wrap;html=1;fillColor=#FFFFFF;" vertex="1" parent="1">
          <mxGeometry x="1290" y="520" width="110" height="30" as="geometry" />
        </mxCell>
        <mxCell id="EieKeSjeqdE_A_YmpYcG-47" value="id_ART" style="ellipse;whiteSpace=wrap;html=1;fillColor=#d5e8d4;strokeColor=#82b366;" vertex="1" parent="1">
          <mxGeometry x="1320" y="670" width="60" height="30" as="geometry" />
        </mxCell>
        <mxCell id="EieKeSjeqdE_A_YmpYcG-48" value="" style="endArrow=none;html=1;rounded=0;entryX=0.028;entryY=0.475;entryDx=0;entryDy=0;entryPerimeter=0;" edge="1" parent="1" target="EieKeSjeqdE_A_YmpYcG-45">
          <mxGeometry width="50" height="50" relative="1" as="geometry">
            <mxPoint x="1240" y="575" as="sourcePoint" />
            <mxPoint x="1290" y="530" as="targetPoint" />
          </mxGeometry>
        </mxCell>
        <mxCell id="EieKeSjeqdE_A_YmpYcG-49" value="" style="endArrow=none;html=1;rounded=0;entryX=0;entryY=0.5;entryDx=0;entryDy=0;" edge="1" parent="1" target="EieKeSjeqdE_A_YmpYcG-47">
          <mxGeometry width="50" height="50" relative="1" as="geometry">
            <mxPoint x="1240" y="581" as="sourcePoint" />
            <mxPoint x="1293" y="540" as="targetPoint" />
          </mxGeometry>
        </mxCell>
        <mxCell id="EieKeSjeqdE_A_YmpYcG-51" value="RATING" style="ellipse;whiteSpace=wrap;html=1;" vertex="1" parent="1">
          <mxGeometry x="1320" y="580" width="60" height="30" as="geometry" />
        </mxCell>
        <mxCell id="EieKeSjeqdE_A_YmpYcG-52" value="" style="endArrow=none;html=1;rounded=0;entryX=0;entryY=0.5;entryDx=0;entryDy=0;" edge="1" parent="1" target="EieKeSjeqdE_A_YmpYcG-51">
          <mxGeometry width="50" height="50" relative="1" as="geometry">
            <mxPoint x="1240" y="580" as="sourcePoint" />
            <mxPoint x="1293" y="539" as="targetPoint" />
          </mxGeometry>
        </mxCell>
      </root>
    </mxGraphModel>
  </diagram>
</mxfile>
